<svg xmlns="http://www.w3.org/2000/svg" overflow="hidden"><defs><symbol id="icon-logo" viewBox="0 0 24 24"><path d="m2.958 15.057 8.083-13.068.48-.506 6.176 4.118.043 2.486 1.507 2.46-6.66 10.557-9.629-6.047Z"/><path d="m16.226 17.91-10.64-6.648m2.935-4.813 10.639 6.648M7.972 19.398l8.802-14.437m3.608 6.13c-2.28-1.424-3.175-2.537-1.708-4.943l-7.22-4.512-8.801 14.438 10.64 6.648 7.09-11.63Z" stroke-width="2" stroke-linecap="round" stroke-linejoin="round"/></symbol><symbol id="scroll-down"><path d="M7.65 5.283a.917.917 0 0 1-1.3 0l-4.2-4.207a.917.917 0 1 0-1.3 1.292l4.207 4.208a2.75 2.75 0 0 0 3.886 0l4.208-4.208a.917.917 0 0 0-1.302-1.292L7.651 5.283Z"/></symbol><symbol id="icon-menu" viewBox="0 0 32 32"><path d="M4 16h24M4 8h24M4 24h24" stroke-width="2.5" stroke-linecap="round" stroke-linejoin="round"/></symbol><symbol id="close" viewBox="0 0 8 8"><g clip-path="url('#clip0_623802_1111')"><path d="M8 .806 7.194 0 4 3.194.806 0 0 .806 3.194 4 0 7.194.806 8 4 4.806 7.194 8 8 7.194 4.806 4 8 .806Z"/></g><defs><clipPath id="clip0_623802_1111"/></defs></symbol><symbol id="flag" viewBox="0 0 32 25"><g clip-path="url('#clip0_1_1184')"><path d="M31.832 1.058H.242v23.509h31.59V1.058Z" fill="gold"/><path fill-rule="evenodd" clip-rule="evenodd" d="M.243 1.058h31.589v11.754H.242V1.058Z" fill="#0057B7"/></g><defs><clipPath id="clip0_1_1184"><path fill="#fff" transform="translate(0 .8)" d="M0 0h32v24H0z"/></clipPath></defs></symbol><symbol id="line" viewBox="0 0 1 124"><path stroke="#fff" stroke-opacity=".5" d="M.5 0v124"/></symbol><symbol id="list" viewBox="0 0 8 8" fill="none"><circle cx="4" cy="4" r="3.5" fill="#4C4C4C" stroke="#ECEDED"/></symbol><symbol id="chocolate" viewBox="0 0 24 24"><path d="m2.958 15.057 8.083-13.068.48-.506 6.176 4.118.043 2.486 1.507 2.46-6.66 10.557-9.629-6.047Z"/><path d="m16.226 17.91-10.64-6.648m2.935-4.813 10.639 6.648M7.972 19.398l8.802-14.437m3.608 6.13c-2.28-1.424-3.175-2.537-1.708-4.943l-7.22-4.512-8.801 14.438 10.64 6.648 7.09-11.63Z" stroke="#FD9222" stroke-width="2" stroke-linecap="round" stroke-linejoin="round"/></symbol><symbol id="chocolate-TM" viewBox="0 0 21 21"><path d="M2.588 13.175 9.66 1.74l.42-.442L15.485 4.9l.037 2.175 1.32 2.152-5.828 9.238-8.426-5.291Z"/><path d="m14.198 15.671-9.31-5.817m2.568-4.211 9.309 5.817m-9.789 5.513L14.678 4.34m3.157 5.365C15.84 8.46 15.056 7.485 16.34 5.38l-6.317-3.947L2.32 14.065l9.31 5.817 6.204-10.177Z" stroke="#FD9222" stroke-width="1.8" stroke-linecap="round" stroke-linejoin="round"/></symbol><symbol id="pagination-btn" viewBox="0 0 13 13"><path d="M6.5 13a6.5 6.5 0 1 0 0-13 6.5 6.5 0 0 0 0 13Z" fill-opacity=".1"/></symbol><symbol id="play" viewBox="0 0 44 44" fill="none"><path d="M15 33V12l20 10.5L15 33Z" fill="rgba(255, 255, 255, 1)"/><circle cx="22" cy="22" r="21.5" stroke="rgba(255, 255, 255, 1)"/></symbol><symbol id="pagination-btn-active" viewBox="0 0 28 13"><path d="M21.5 0h-15a6.5 6.5 0 0 0 0 13h15a6.5 6.5 0 1 0 0-13Z"/></symbol><symbol id="instagram" viewBox="0 0 24 24"><path d="M17 2H7a5 5 0 0 0-5 5v10a5 5 0 0 0 5 5h10a5 5 0 0 0 5-5V7a5 5 0 0 0-5-5Z" stroke-width="2" stroke-linecap="round" stroke-linejoin="round"/><path d="M16 11.37a4 4 0 1 1-7.914 1.173A4 4 0 0 1 16 11.37Z" stroke-width="2" stroke-linecap="round" stroke-linejoin="round"/><path d="M16 11.37a4 4 0 1 1-7.914 1.173A4 4 0 0 1 16 11.37ZM17.5 6.5h.01M17.5 6.5h.01" stroke-width="2" stroke-linecap="round" stroke-linejoin="round"/></symbol><symbol id="instagram-M" viewBox="0 0 22 22" fill="none"><path d="M15.584 1.833H6.417a4.583 4.583 0 0 0-4.583 4.584v9.166a4.583 4.583 0 0 0 4.583 4.584h9.166a4.583 4.583 0 0 0 4.584-4.584V6.417a4.583 4.583 0 0 0-4.584-4.584Z" stroke="#111" stroke-width="1.5" stroke-linecap="round" stroke-linejoin="round"/><path d="M14.667 10.422a3.666 3.666 0 1 1-7.253 1.076 3.666 3.666 0 0 1 7.253-1.075Z" stroke="#111" stroke-width="1.5" stroke-linecap="round" stroke-linejoin="round"/><path d="M14.667 10.422a3.666 3.666 0 1 1-7.253 1.076 3.666 3.666 0 0 1 7.253-1.075ZM16.041 5.958h.01M16.041 5.958h.01" stroke="#111" stroke-width="1.5" stroke-linecap="round" stroke-linejoin="round"/></symbol><symbol id="icon-mastercard1" viewBox="0 0 32 20" fill="none" xmlns="http://www.w3.org/2000/svg"><path fill-rule="evenodd" clip-rule="evenodd" d="M16 16.834a9.083 9.083 0 0 1-5.935 2.199c-5.054 0-9.15-4.12-9.15-9.204 0-5.083 4.096-9.204 9.15-9.204 2.264 0 4.337.828 5.935 2.199A9.083 9.083 0 0 1 21.935.625c5.054 0 9.15 4.12 9.15 9.204 0 5.083-4.096 9.204-9.15 9.204A9.083 9.083 0 0 1 16 16.834Z" fill="#ED0006"/><path fill-rule="evenodd" clip-rule="evenodd" d="M16 16.834a9.206 9.206 0 0 0 3.215-7.005A9.206 9.206 0 0 0 16 2.824 9.083 9.083 0 0 1 21.935.625c5.054 0 9.15 4.12 9.15 9.204 0 5.083-4.096 9.204-9.15 9.204A9.083 9.083 0 0 1 16 16.834Z" fill="#F9A000"/><path fill-rule="evenodd" clip-rule="evenodd" d="M16 16.834a9.206 9.206 0 0 0 3.215-7.005A9.206 9.206 0 0 0 16 2.824a9.206 9.206 0 0 0-3.215 7.005A9.205 9.205 0 0 0 16 16.834Z" fill="#FF5E00"/></symbol><symbol id="twitter" viewBox="0 0 24 24"><path d="M23 3a10.9 10.9 0 0 1-3.14 1.53 4.48 4.48 0 0 0-7.86 3v1A10.66 10.66 0 0 1 3 4s-4 9 5 13a11.64 11.64 0 0 1-7 2c9 5 20 0 20-11.5 0-.279-.028-.556-.08-.83A7.72 7.72 0 0 0 23 3Z" stroke-width="2" stroke-linecap="round" stroke-linejoin="round"/></symbol><symbol id="twitter-M" viewBox="0 0 20 20"><path d="M19.167 2.5a9.083 9.083 0 0 1-2.617 1.275 3.733 3.733 0 0 0-6.55 2.5v.833a8.883 8.883 0 0 1-4.224-.945C4.467 5.504 3.342 4.199 2.5 3c0 0-3.333 7.833 4.167 11.167a9.7 9.7 0 0 1-5.834 1.666C8.333 20 17.5 15.833 17.5 6.25c0-.232-.023-.464-.067-.692A6.433 6.433 0 0 0 19.167 2.5Z" stroke="#111" stroke-width="1.5" stroke-linecap="round" stroke-linejoin="round"/></symbol><symbol id="chocolate-bar" viewBox="0 0 32 32"><path d="m13.822 2.413 7.527 7.536.08-.08a.856.856 0 0 1 1.184-.013l.006.006.867.867c.305.305.315.77.083 1.094l-.004.007-.143.192 6.16 6.16c.55.55.55 1.43 0 1.98l-9.43 9.43c-.55.55-1.43.55-1.98 0l-4.447-4.447a.841.841 0 0 1-1.256.071l-2.6-2.6a.856.856 0 0 1-.013-1.184l.006-.007.077-.076-7.527-7.527c-.55-.55-.55-1.43 0-1.98l9.43-9.43c.55-.55 1.43-.55 1.98 0v.001Zm6.582 8.48-1.756-1.755a.592.592 0 0 0-.85 0l-3.58 3.58a.606.606 0 0 0 0 .86l1.749 1.749.61-.61-1.565-1.565 3.21-3.22 1.569 1.574.613-.613Zm-5.076 5.072-1.754-1.754a.592.592 0 0 0-.85 0l-3.58 3.58-.005.005-.005.005c-.24.23-.24.61 0 .85l1.752 1.752.616-.616-1.57-1.564 3.22-3.21 1.564 1.563.612-.611ZM8.822 8.193l3.58 3.58c.24.24.62.24.85-.01l3.58-3.58a.579.579 0 0 0 .18-.42h.01c0-.15-.06-.31-.18-.43l-3.58-3.58a.604.604 0 0 0-.86 0l-3.58 3.59c-.24.23-.24.61 0 .85Zm-5.07 5.07 3.58 3.58c.24.24.62.24.85 0l3.58-3.58a.58.58 0 0 0 .18-.43h.01c0-.16-.06-.31-.18-.43l-3.58-3.58a.592.592 0 0 0-.85 0l-3.59 3.59c-.24.23-.24.61 0 .85Zm6.933 8.754 2.362 2.363 9.636-13.04-.655-.655-11.343 11.332Z"/><path d="m13.822 2.413 7.527 7.536.08-.08a.856.856 0 0 1 1.184-.013l.006.006.867.867c.305.305.315.77.083 1.094l-.004.007-.143.192 6.16 6.16c.55.55.55 1.43 0 1.98l-9.43 9.43c-.55.55-1.43.55-1.98 0l-4.447-4.447a.841.841 0 0 1-1.256.071l-2.6-2.6a.856.856 0 0 1-.013-1.184l.006-.007.077-.076-7.527-7.527c-.55-.55-.55-1.43 0-1.98l9.43-9.43c.55-.55 1.43-.55 1.98 0v.001Zm6.582 8.48-1.756-1.755a.592.592 0 0 0-.85 0l-3.58 3.58a.606.606 0 0 0 0 .86l1.749 1.749.61-.61-1.565-1.565 3.21-3.22 1.569 1.574.613-.613Zm-5.076 5.072-1.754-1.754a.592.592 0 0 0-.85 0l-3.58 3.58-.005.005-.005.005c-.24.23-.24.61 0 .85l1.752 1.752.616-.616-1.57-1.564 3.22-3.21 1.564 1.563.612-.611ZM8.822 8.193l3.58 3.58c.24.24.62.24.85-.01l3.58-3.58a.579.579 0 0 0 .18-.42h.01c0-.15-.06-.31-.18-.43l-3.58-3.58a.604.604 0 0 0-.86 0l-3.58 3.59c-.24.23-.24.61 0 .85Zm-5.07 5.07 3.58 3.58c.24.24.62.24.85 0l3.58-3.58a.58.58 0 0 0 .18-.43h.01c0-.16-.06-.31-.18-.43l-3.58-3.58a.592.592 0 0 0-.85 0l-3.59 3.59c-.24.23-.24.61 0 .85Zm6.933 8.754 2.362 2.363 9.636-13.04-.655-.655-11.343 11.332Z"/></symbol><symbol id="coin" viewBox="0 0 32 32"><path d="M16 2.667c-7.334 0-13.334 6-13.334 13.333s6 13.333 13.334 13.333c7.333 0 13.333-6 13.333-13.333S23.333 2.667 16 2.667Zm0 24c-5.867 0-10.667-4.8-10.667-10.667S10.133 5.333 16 5.333c5.866 0 10.666 4.8 10.666 10.667S21.866 26.667 16 26.667Z"/><path d="M17.733 14.667h-3.466c-.667 0-1.2-.534-1.2-1.2 0-.667.533-1.2 1.2-1.2H19.2c.8 0 1.333-.534 1.333-1.334S20 9.6 19.2 9.6h-1.867V8.4c0-.8-.533-1.333-1.333-1.333-.8 0-1.333.533-1.333 1.333v1.2h-.4a3.87 3.87 0 0 0-3.867 3.867 3.87 3.87 0 0 0 3.867 3.866H17.6c.667 0 1.2.534 1.2 1.2 0 .667-.533 1.2-1.2 1.2h-4.933c-.8 0-1.334.534-1.334 1.334s.534 1.333 1.334 1.333h2v1.2c0 .8.533 1.333 1.333 1.333.8 0 1.333-.533 1.333-1.333v-1.2h.4a3.87 3.87 0 0 0 3.867-3.867 3.87 3.87 0 0 0-3.867-3.866Z"/></symbol><symbol id="spoon" viewBox="0 0 32 32"><path d="M15.451 14.106a5.156 5.156 0 0 1-1.176-3.282c0-4.324 5.18-8.642 10.362-8.642a5.183 5.183 0 0 1 5.181 5.182c0 5.182-4.318 10.364-8.646 10.364a5.154 5.154 0 0 1-3.281-1.177L5.132 29.312a1.73 1.73 0 0 1-2.444-2.445L15.45 14.106Z"/></symbol><symbol id="burger" viewBox="0 0 32 32"><path d="M4 16h24M4 8h24M4 24h24" stroke="#111" stroke-width="2.5" stroke-linecap="round" stroke-linejoin="round"/></symbol><symbol id="hamburger" viewBox="0 0 28 28"><path d="M3.5 14h21m-21-7h21m-21 14h21" stroke="#111" stroke-width="2" stroke-linecap="round" stroke-linejoin="round"/></symbol><symbol id="angle-down" viewBox="0 0 22 22"><path d="M11.651 12.283a.916.916 0 0 1-1.301 0L6.15 8.076A.917.917 0 1 0 4.85 9.368l4.207 4.208a2.75 2.75 0 0 0 3.887 0l4.207-4.208a.916.916 0 0 0-1.301-1.292l-4.199 4.207Z"/></symbol><symbol id="angle-down-M" viewBox="0 0 16 16"><path d="M8.473 8.934a.667.667 0 0 1-.947 0l-3.053-3.06a.667.667 0 1 0-.947.94l3.06 3.06a2 2 0 0 0 2.827 0l3.06-3.06a.667.667 0 0 0-.947-.94l-3.053 3.06Z"/></symbol><symbol id="close" viewBox="0 0 28 28"><path d="M21 7 7 21M7 7l14 14" stroke="#111" stroke-width="2" stroke-linecap="round" stroke-linejoin="round"/></symbol><symbol id="icon-logo" viewBox="0 0 24 24"><path d="m2.958 15.057 8.083-13.068.48-.506 6.176 4.118.043 2.486 1.507 2.46-6.66 10.557-9.629-6.047Z"/><path d="m16.226 17.91-10.64-6.648m2.935-4.813 10.639 6.648M7.972 19.398l8.802-14.437m3.608 6.13c-2.28-1.424-3.175-2.537-1.708-4.943l-7.22-4.512-8.801 14.438 10.64 6.648 7.09-11.63Z" stroke-width="2" stroke-linecap="round" stroke-linejoin="round"/></symbol><symbol id="icon-down" viewBox="0 0 14 8"><path d="M7.65 5.283a.917.917 0 0 1-1.3 0l-4.2-4.207a.917.917 0 1 0-1.3 1.292l4.207 4.208a2.75 2.75 0 0 0 3.886 0l4.208-4.208a.917.917 0 0 0-1.302-1.292L7.651 5.283Z"/></symbol><symbol id="icon-menu" viewBox="0 0 32 32"><path d="M4 16h24M4 8h24M4 24h24" stroke-width="2.5" stroke-linecap="round" stroke-linejoin="round"/></symbol></defs></svg>